<svg width="127.20001220703125px" height="158.68001708984374px" xmlns="http://www.w3.org/2000/svg" viewBox="186.39999389648438 -4.340008544921872 127.20001220703125 158.68001708984374" style="background: rgba(0, 0, 0, 0) none repeat scroll 0% 0%;" preserveAspectRatio="xMidYMid"><defs><linearGradient id="editing-gradient-gradient" x1="0" x2="1" y1="0.5" y2="0.5" gradientUnits="objectBoundingBox"><stop offset="0" stop-color="#000000"></stop><stop offset="1" stop-color="#000000"></stop></linearGradient></defs><g><g transform="translate(209.71001052856445, 95.18999862670898)"><path d="M24.45-3.90L15.42-14.40L15.42-0.26L15.42-0.26Q14.72-0.06 13.18 0.13L13.18 0.13L13.18 0.13Q11.65 0.32 10.18 0.32L10.18 0.32L10.18 0.32Q8.70 0.32 7.58 0.10L7.58 0.10L7.58 0.10Q6.46-0.13 5.70-0.70L5.70-0.70L5.70-0.70Q4.93-1.28 4.54-2.30L4.54-2.30L4.54-2.30Q4.16-3.33 4.16-4.99L4.16-4.99L4.16-38.78L4.16-38.78Q4.86-38.91 6.40-39.14L6.40-39.14L6.40-39.14Q7.94-39.36 9.34-39.36L9.34-39.36L9.34-39.36Q10.82-39.36 11.94-39.14L11.94-39.14L11.94-39.14Q13.06-38.91 13.82-38.34L13.82-38.34L13.82-38.34Q14.59-37.76 14.98-36.74L14.98-36.74L14.98-36.74Q15.36-35.71 15.36-34.05L15.36-34.05L15.36-23.87L28.67-39.17L28.67-39.17Q33.02-39.17 34.91-37.54L34.91-37.54L34.91-37.54Q36.80-35.90 36.80-33.66L36.80-33.66L36.80-33.66Q36.80-32 35.97-30.53L35.97-30.53L35.97-30.53Q35.14-29.06 33.28-27.20L33.28-27.20L25.28-19.20L25.28-19.20Q26.88-17.41 28.64-15.49L28.64-15.49L28.64-15.49Q30.40-13.57 32.10-11.74L32.10-11.74L32.10-11.74Q33.79-9.92 35.36-8.26L35.36-8.26L35.36-8.26Q36.93-6.59 38.08-5.38L38.08-5.38L38.08-5.38Q38.08-3.97 37.57-2.88L37.57-2.88L37.57-2.88Q37.06-1.79 36.19-1.02L36.19-1.02L36.19-1.02Q35.33-0.26 34.24 0.13L34.24 0.13L34.24 0.13Q33.15 0.51 31.94 0.51L31.94 0.51L31.94 0.51Q29.31 0.51 27.65-0.80L27.65-0.80L27.65-0.80Q25.98-2.11 24.45-3.90L24.45-3.90ZM58.05-12.54L54.66-12.54L54.66-0.26L54.66-0.26Q53.95-0.06 52.45 0.13L52.45 0.13L52.45 0.13Q50.94 0.32 49.47 0.32L49.47 0.32L49.47 0.32Q48 0.32 46.88 0.10L46.88 0.10L46.88 0.10Q45.76-0.13 45.02-0.70L45.02-0.70L45.02-0.70Q44.29-1.28 43.90-2.30L43.90-2.30L43.90-2.30Q43.52-3.33 43.52-4.99L43.52-4.99L43.52-35.14L43.52-35.14Q43.52-36.48 44.26-37.22L44.26-37.22L44.26-37.22Q44.99-37.95 46.27-38.40L46.27-38.40L46.27-38.40Q48.45-39.17 51.33-39.52L51.33-39.52L51.33-39.52Q54.21-39.87 57.47-39.87L57.47-39.87L57.47-39.87Q66.30-39.87 70.78-36.16L70.78-36.16L70.78-36.16Q75.26-32.45 75.26-26.11L75.26-26.11L75.26-26.11Q75.26-22.14 73.22-19.33L73.22-19.33L73.22-19.33Q71.17-16.51 68.35-14.98L68.35-14.98L68.35-14.98Q70.66-11.84 72.90-9.09L72.90-9.09L72.90-9.09Q75.14-6.34 76.42-4.10L76.42-4.10L76.42-4.10Q75.78-1.86 74.08-0.67L74.08-0.67L74.08-0.67Q72.38 0.51 70.27 0.51L70.27 0.51L70.27 0.51Q68.86 0.51 67.84 0.19L67.84 0.19L67.84 0.19Q66.82-0.13 66.05-0.70L66.05-0.70L66.05-0.70Q65.28-1.28 64.64-2.11L64.64-2.11L64.64-2.11Q64-2.94 63.42-3.90L63.42-3.90L58.05-12.54ZM54.59-21.06L58.69-21.06L58.69-21.06Q61.12-21.06 62.53-22.30L62.53-22.30L62.53-22.30Q63.94-23.55 63.94-25.98L63.94-25.98L63.94-25.98Q63.94-28.42 62.37-29.66L62.37-29.66L62.37-29.66Q60.80-30.91 57.41-30.91L57.41-30.91L57.41-30.91Q56.45-30.91 55.87-30.85L55.87-30.85L55.87-30.85Q55.30-30.78 54.59-30.66L54.59-30.66L54.59-21.06Z" fill="url(#editing-gradient-gradient)"></path></g></g><style>text {
  font-size: 64px;
  font-family: Arial Black;
  dominant-baseline: central;
  text-anchor: middle;
}</style></svg>