<svg width="112.403" height="76.172" viewBox="0 0 112.403 76.172" xmlns="http://www.w3.org/2000/svg"><g id="svgGroup" stroke-linecap="round" fill-rule="evenodd" font-size="9pt" stroke="#263147" stroke-width="0.25mm" fill="#263147" style="stroke:#263147;stroke-width:0.25mm;fill:#263147"><path d="M 0 9.912 L 0 1.465 L 30.811 1.465 Q 35.742 1.465 39.917 2.759 A 22.224 22.224 0 0 1 44.805 4.918 A 19.303 19.303 0 0 1 47.144 6.568 A 17.246 17.246 0 0 1 51.904 12.842 A 18.807 18.807 0 0 1 53.37 17.963 A 24.624 24.624 0 0 1 53.613 21.485 Q 53.613 24.268 52.612 26.978 A 19.039 19.039 0 0 1 49.829 32.007 A 21.17 21.17 0 0 1 45.605 36.133 A 19.321 19.321 0 0 1 40.283 38.916 Q 41.504 39.453 42.749 40.454 A 13.161 13.161 0 0 1 44.356 41.998 A 15.987 15.987 0 0 1 45.093 42.896 A 18.767 18.767 0 0 1 46.496 45.034 A 22.531 22.531 0 0 1 47.095 46.167 A 20.018 20.018 0 0 1 48.467 49.837 A 22.134 22.134 0 0 1 48.535 50.098 L 52.637 66.211 L 59.033 66.211 L 59.131 75.489 L 44.727 75.489 L 39.209 52.979 Q 37.695 46.924 34.595 44.068 A 10.365 10.365 0 0 0 30.043 41.665 Q 28.263 41.211 26.123 41.211 L 16.602 41.211 L 16.602 67.09 L 24.023 67.09 L 24.023 75.489 L 0 75.489 L 0 67.09 L 7.031 67.09 L 7.031 9.912 L 0 9.912 Z M 76.221 19.287 L 66.943 19.287 Q 67.188 15.039 69.067 11.621 Q 70.947 8.203 73.828 5.616 Q 76.709 3.028 80.566 1.514 A 21.861 21.861 0 0 1 88.623 0 A 27.233 27.233 0 0 1 94.192 0.549 A 22.43 22.43 0 0 1 98.096 1.734 A 24.35 24.35 0 0 1 103.028 4.416 A 21.082 21.082 0 0 1 105.347 6.324 A 20.439 20.439 0 0 1 109.985 12.842 Q 111.621 16.504 111.621 20.313 A 19.263 19.263 0 0 1 111.035 25 A 16.901 16.901 0 0 1 109.204 29.468 A 16.892 16.892 0 0 1 106.599 32.826 A 19.323 19.323 0 0 1 106.006 33.399 Q 104.053 35.205 101.27 36.573 A 16.637 16.637 0 0 1 105.591 39.038 Q 107.617 40.625 109.131 42.823 A 18.058 18.058 0 0 1 111.14 46.697 A 20.995 20.995 0 0 1 111.523 47.803 A 18.934 18.934 0 0 1 112.308 51.785 A 23.22 23.22 0 0 1 112.402 53.907 A 21.631 21.631 0 0 1 111.315 60.819 A 20.146 20.146 0 0 1 110.547 62.769 A 22.149 22.149 0 0 1 105.518 69.825 A 23.147 23.147 0 0 1 98.205 74.435 A 26.171 26.171 0 0 1 98.071 74.488 A 24.567 24.567 0 0 1 89.524 76.166 A 27.981 27.981 0 0 1 88.916 76.172 A 26.199 26.199 0 0 1 80.005 74.585 A 22.295 22.295 0 0 1 75.006 72.077 A 19.362 19.362 0 0 1 72.51 70.069 A 23.862 23.862 0 0 1 69.98 67.268 A 17.67 17.67 0 0 1 67.969 63.965 Q 66.504 60.791 66.211 57.666 L 75.586 57.666 Q 77.002 62.207 80.64 64.795 A 13.467 13.467 0 0 0 85.507 66.923 Q 87.39 67.353 89.58 67.381 A 24.01 24.01 0 0 0 89.893 67.383 Q 92.432 67.383 94.849 66.358 A 13.573 13.573 0 0 0 99.121 63.501 Q 100.977 61.67 102.1 59.204 A 12.651 12.651 0 0 0 103.205 54.534 A 14.851 14.851 0 0 0 103.223 53.809 Q 103.223 50.733 102.1 48.242 A 12.843 12.843 0 0 0 99.648 44.579 A 12.164 12.164 0 0 0 99.072 44.019 Q 97.168 42.285 94.653 41.333 A 14.972 14.972 0 0 0 89.307 40.381 L 85.107 40.381 L 85.107 33.008 L 88.525 33.008 A 18.745 18.745 0 0 0 91.673 32.755 A 14.6 14.6 0 0 0 94.312 32.056 A 13.726 13.726 0 0 0 96.941 30.761 A 11.426 11.426 0 0 0 98.633 29.444 A 11.534 11.534 0 0 0 101.343 25.562 A 11.957 11.957 0 0 0 102.295 20.801 A 10.317 10.317 0 0 0 102.047 18.606 A 13.964 13.964 0 0 0 101.489 16.724 A 11.958 11.958 0 0 0 99.332 13.095 A 13.81 13.81 0 0 0 98.999 12.72 A 12.569 12.569 0 0 0 96.267 10.502 A 15.543 15.543 0 0 0 94.751 9.693 A 12.376 12.376 0 0 0 91.581 8.725 A 17.03 17.03 0 0 0 88.721 8.496 A 14.382 14.382 0 0 0 85.48 8.849 A 12.181 12.181 0 0 0 83.472 9.497 Q 81.563 10.304 79.67 12.237 A 20.359 20.359 0 0 0 78.76 13.233 A 10.825 10.825 0 0 0 76.876 16.303 A 9.611 9.611 0 0 0 76.221 19.287 Z M 29.639 9.912 L 16.602 9.912 L 16.602 33.203 L 30.811 33.203 A 18.438 18.438 0 0 0 33.874 32.959 A 15.078 15.078 0 0 0 35.913 32.471 A 11.625 11.625 0 0 0 38.743 31.156 A 10.371 10.371 0 0 0 39.917 30.274 A 10.077 10.077 0 0 0 42.463 26.838 A 11.663 11.663 0 0 0 42.554 26.636 A 11.008 11.008 0 0 0 43.324 23.968 A 14.914 14.914 0 0 0 43.506 21.582 A 14.705 14.705 0 0 0 43.095 18.005 A 9.973 9.973 0 0 0 40.186 12.989 A 9.962 9.962 0 0 0 36.843 10.997 Q 35.318 10.429 33.416 10.159 A 26.907 26.907 0 0 0 29.639 9.912 Z" vector-effect="non-scaling-stroke"/></g></svg>
