<svg xmlns="http://www.w3.org/2000/svg" style="background: rgba(0, 0, 0, 0) none repeat scroll 0% 0%;" preserveAspectRatio="xMidYMid" viewBox="213.23 56.03 74.62 39.23"><defs><linearGradient id="editing-gradient-gradient" x1="0.26526421860705457" x2="0.7347357813929454" y1="0.05852620357053656" y2="0.9414737964294635" gradientUnits="objectBoundingBox"><stop offset="0" stop-color="#000000"/><stop offset="1" stop-color="#000000"/></linearGradient></defs><g><g transform="translate(211.79176783561707, 94.59500122070312)"><path d="M1.45-35.93L7.26-34.36L7.26-3.97L1.97-2.28L1.66 0L18.67 0L19.01-2.46L13.20-3.81L13.20-34.48L18.49-35.93L18.80-38.27L1.88-38.27L1.45-35.93ZM13.97-18.61L21.72-8.03L21.72-8.03Q24.73-3.88 27.65-1.61L27.65-1.61L27.65-1.61Q30.58 0.65 34.11 0.65L34.11 0.65L34.11 0.65Q36.21 0.65 38.14-0.03L38.14-0.03L38.45-2.15L37.31-2.55L37.31-2.55Q35.41-3.14 33.87-4.23L33.87-4.23L33.87-4.23Q32.33-5.32 30.81-6.95L30.81-6.95L30.81-6.95Q29.29-8.58 26.52-11.84L26.52-11.84L19.53-20.09L31.01-34.48L36.45-35.93L36.82-38.27L21.66-38.27L21.41-35.93L26.18-34.48L18.61-24.55L18.61-24.55Q17.93-23.69 16.29-21.83L16.29-21.83L16.29-21.83Q14.64-19.96 13.94-19.26L13.94-19.26L13.97-18.61ZM56.17 0L56.48-2.55L50.70-3.88L50.70-16.52L56.05-16.52L60.94-7.78L60.94-7.78Q63.15-3.81 65.81-1.58L65.81-1.58L65.81-1.58Q68.48 0.65 71.89 0.65L71.89 0.65L71.89 0.65Q73.83 0.65 75.58 0.03L75.58 0.03L76.04-2.06L75.03-2.37L75.03-2.37Q73.18-2.92 71.86-3.89L71.86-3.89L71.86-3.89Q70.54-4.86 69.37-6.28L69.37-6.28L69.37-6.28Q68.20-7.69 66.01-10.74L66.01-10.74L60.48-18.40L60.48-18.43L60.48-18.43Q63.28-19.41 65.26-21.13L65.26-21.13L65.26-21.13Q67.25-22.86 68.28-24.92L68.28-24.92L68.28-24.92Q69.31-26.98 69.31-29.01L69.31-29.01L69.31-29.01Q69.31-34.11 65.26-36.33L65.26-36.33L65.26-36.33Q61.22-38.54 53.86-38.54L53.86-38.54L53.86-38.54Q50.79-38.54 47.43-38.18L47.43-38.18L47.43-38.18Q44.08-37.81 39.84-37.13L39.84-37.13L39.53-34.76L44.79-33.84L44.79-3.72L39.65-2.28L39.31 0L56.17 0ZM50.70-35.81L50.70-35.81Q50.97-35.84 52.00-35.90L52.00-35.90L52.00-35.90Q53.03-35.96 54.39-35.96L54.39-35.96L54.39-35.96Q57.06-35.96 58.99-34.85L58.99-34.85L58.99-34.85Q60.91-33.75 61.92-31.78L61.92-31.78L61.92-31.78Q62.94-29.81 62.94-27.29L62.94-27.29L62.94-27.29Q62.94-24.24 61.15-22.21L61.15-22.21L61.15-22.21Q59.37-20.18 56.79-19.32L56.79-19.32L50.70-19.32L50.70-35.81Z" fill="url(#editing-gradient-gradient)"/></g></g><style>text {
  font-size: 64px;
  font-family: Arial Black;
  dominant-baseline: central;
  text-anchor: middle;
}</style></svg>